<?xml version="1.0" encoding="UTF-8" standalone="no"?>
<!-- Created with Inkscape (http://www.inkscape.org/) -->

<svg
   xmlns:dc="http://purl.org/dc/elements/1.1/"
   xmlns:cc="http://creativecommons.org/ns#"
   xmlns:rdf="http://www.w3.org/1999/02/22-rdf-syntax-ns#"
   xmlns:svg="http://www.w3.org/2000/svg"
   xmlns="http://www.w3.org/2000/svg"
   xmlns:sodipodi="http://sodipodi.sourceforge.net/DTD/sodipodi-0.dtd"
   xmlns:inkscape="http://www.inkscape.org/namespaces/inkscape"
   width="87.609032mm"
   height="81.853165mm"
   viewBox="0 0 310.4257 290.0309"
   id="svg2"
   version="1.1"
   inkscape:version="0.91 r13725"
   sodipodi:docname="technical-conceptual-interpersonal.svg">
  <defs
     id="defs4" />
  <sodipodi:namedview
     id="base"
     pagecolor="#ffffff"
     bordercolor="#666666"
     borderopacity="1.0"
     inkscape:pageopacity="0.0"
     inkscape:pageshadow="2"
     inkscape:zoom="1.4"
     inkscape:cx="192.40146"
     inkscape:cy="112.01342"
     inkscape:document-units="px"
     inkscape:current-layer="layer1"
     showgrid="false"
     inkscape:window-width="1295"
     inkscape:window-height="744"
     inkscape:window-x="65"
     inkscape:window-y="24"
     inkscape:window-maximized="1"
     fit-margin-top="0"
     fit-margin-left="0"
     fit-margin-right="0"
     fit-margin-bottom="0" />
  <metadata
     id="metadata7">
    <rdf:RDF>
      <cc:Work
         rdf:about="">
        <dc:format>image/svg+xml</dc:format>
        <dc:type
           rdf:resource="http://purl.org/dc/dcmitype/StillImage" />
        <dc:title></dc:title>
      </cc:Work>
    </rdf:RDF>
  </metadata>
  <g
     inkscape:label="Layer 1"
     inkscape:groupmode="layer"
     id="layer1"
     transform="translate(-76.884255,-297.20186)">
    <g
       id="g4364">
      <path
         id="path3336"
         d="m 271.87283,410.00507 a 89.515839,89.515839 0 0 1 -89.51584,89.51583 89.515839,89.515839 0 0 1 -89.515834,-89.51583 89.515839,89.515839 0 0 1 89.515834,-89.51584 89.515839,89.515839 0 0 1 89.51584,89.51584 z"
         style="fill:#c2954b;fill-opacity:0.50196078;fill-rule:evenodd;stroke:#000000;stroke-width:0.96832359px;stroke-linecap:butt;stroke-linejoin:miter;stroke-opacity:1" />
      <path
         id="path3336-3"
         d="M 364.51584,411.64792 A 89.515839,89.515839 0 0 1 275,501.16376 89.515839,89.515839 0 0 1 185.48416,411.64792 89.515839,89.515839 0 0 1 275,322.13208 a 89.515839,89.515839 0 0 1 89.51584,89.51584 z"
         style="fill:#b0624e;fill-opacity:0.50196078;fill-rule:evenodd;stroke:#000000;stroke-width:0.96832359px;stroke-linecap:butt;stroke-linejoin:miter;stroke-opacity:1" />
      <path
         id="path3336-3-0"
         d="m 318.19434,481.64792 a 89.515839,89.515839 0 0 1 -89.51584,89.51584 89.515839,89.515839 0 0 1 -89.51584,-89.51584 89.515839,89.515839 0 0 1 89.51584,-89.51584 89.515839,89.515839 0 0 1 89.51584,89.51584 z"
         style="fill:#5d4f48;fill-opacity:0.50196078;fill-rule:evenodd;stroke:#000000;stroke-width:0.96832359px;stroke-linecap:butt;stroke-linejoin:miter;stroke-opacity:1" />
      <g
         id="flowRoot4192"
         style="font-style:normal;font-weight:normal;font-size:40px;line-height:125%;font-family:Sans;letter-spacing:0px;word-spacing:0px;fill:#000000;fill-opacity:1;stroke:none;stroke-width:1px;stroke-linecap:butt;stroke-linejoin:miter;stroke-opacity:1" />
      <g
         id="text4200"
         style="font-style:normal;font-weight:normal;font-size:40px;line-height:125%;font-family:Sans;letter-spacing:0px;word-spacing:0px;fill:#000000;fill-opacity:1;stroke:none;stroke-width:1px;stroke-linecap:butt;stroke-linejoin:miter;stroke-opacity:1">
        <path
           id="path4298"
           style="font-style:normal;font-variant:normal;font-weight:normal;font-stretch:normal;font-size:30px;font-family:Ubuntu;-inkscape-font-specification:Ubuntu"
           d="m 82.349032,377.54579 1.870719,-5.60612 2.21968,0.74069 -1.870719,5.60612 6.829783,2.27904 q 1.10984,0.37035 1.906709,0.4465 0.768412,0.0667 1.309226,-0.13239 0.512356,-0.20854 0.85403,-0.6638 0.341673,-0.45526 0.569578,-1.13824 0.398833,-1.19521 0.380117,-1.99211 -0.03768,-0.83485 -0.05655,-1.15741 l 2.362151,0.21896 q 0.06626,0.46488 0.01847,1.55585 -0.01933,1.10046 -0.446651,2.38105 -0.50329,1.50824 -1.205598,2.3808 -0.721269,0.83461 -1.689037,1.17582 -0.967767,0.34122 -2.163071,0.22699 -1.214265,-0.15218 -2.694052,-0.64598 l -13.204247,-4.40616 0.427812,-2.79848 4.581646,1.52887 z" />
        <path
           id="path4300"
           style="font-style:normal;font-variant:normal;font-weight:normal;font-stretch:normal;font-size:30px;font-family:Ubuntu;-inkscape-font-specification:Ubuntu"
           d="m 92.945036,370.99922 q -1.833834,-0.96018 -2.910963,-2.20143 -1.103706,-1.25516 -1.548117,-2.60534 -0.44441,-1.35019 -0.29785,-2.72958 0.146561,-1.37939 0.772768,-2.57537 1.461148,-2.79062 3.994529,-3.36051 2.506804,-0.58381 6.068164,1.28089 0.159464,0.0835 0.425237,0.22265 0.239196,0.12525 0.437898,0.26315 l -4.953988,9.46152 q 2.236256,0.96771 3.923047,0.4625 1.686789,-0.50521 2.897459,-2.81744 0.68187,-1.30229 0.92847,-2.29066 0.23393,-1.02887 0.25788,-1.59201 l 2.25394,0.73992 q 0.003,0.57705 -0.32998,1.85903 -0.31868,1.25541 -1.07013,2.69058 -0.94627,1.80726 -2.1736,2.85781 -1.23999,1.01006 -2.642077,1.35957 -1.402086,0.34951 -2.927025,0.0929 -1.537601,-0.29712 -3.105662,-1.11815 z m 3.612461,-10.1978 q -1.660455,-0.90326 -3.182765,-0.58284 -1.534972,0.27993 -2.328167,1.79484 -0.445302,0.85047 -0.44769,1.69581 -0.01505,0.80484 0.279931,1.53497 0.294979,0.73013 0.846832,1.35771 0.565769,0.601 1.241609,1.05646 l 3.59025,-6.85695 z" />
        <path
           id="path4302"
           style="font-style:normal;font-variant:normal;font-weight:normal;font-stretch:normal;font-size:30px;font-family:Ubuntu;-inkscape-font-specification:Ubuntu"
           d="m 112.88436,354.07892 q -1.14942,1.50031 -2.50146,2.27851 -1.33379,0.75439 -2.79318,0.88346 -1.44116,0.10525 -2.89998,-0.40771 -1.48264,-0.5312 -2.91151,-1.62588 -1.42887,-1.09469 -2.309439,-2.41177 -0.86232,-1.3409 -1.135811,-2.75977 -0.297306,-1.43712 0.06566,-2.89748 0.357397,-1.50242 1.397345,-2.85985 0.638564,-0.8335 1.420014,-1.55754 0.78146,-0.72404 1.67487,-1.24892 l 1.49821,1.94143 q -0.62128,0.31766 -1.27502,0.875 -0.6355,0.53352 -1.20108,1.27177 -1.42309,1.85753 -1.02246,3.75173 0.41888,1.87039 2.65744,3.58539 1.00021,0.76628 1.99792,1.19051 1.01596,0.40042 1.97621,0.38025 0.97851,-0.044 1.89574,-0.55062 0.89342,-0.52489 1.73268,-1.62035 0.67505,-0.88114 1.05569,-1.72329 0.38064,-0.84215 0.50028,-1.39295 l 2.09472,1.1135 q -0.0269,0.28174 -0.18149,0.73018 -0.17841,0.4302 -0.45362,0.9374 -0.25139,0.52546 -0.60514,1.08587 -0.3117,0.55484 -0.67659,1.03113 z" />
        <path
           id="path4304"
           style="font-style:normal;font-variant:normal;font-weight:normal;font-stretch:normal;font-size:30px;font-family:Ubuntu;-inkscape-font-specification:Ubuntu"
           d="m 117.18736,348.33087 -15.45001,-16.76714 1.7265,-2.24359 5.40751,5.8685 q 0.37032,-0.74917 0.90847,-1.44903 0.53989,-0.74224 1.17969,-1.33178 1.36785,-1.26039 2.63831,-1.69676 1.25014,-0.45844 2.43015,-0.24035 1.18175,0.1757 2.29685,0.94314 1.11509,0.76744 2.19253,1.93673 l 5.93605,6.44211 -2.05176,1.89059 -5.52948,-6.00087 q -0.97579,-1.05898 -1.82141,-1.66678 -0.82356,-0.62814 -1.5814,-0.7865 -0.75784,-0.15837 -1.49235,0.15129 -0.75484,0.28761 -1.57113,1.03978 -0.33093,0.30493 -0.64327,0.67432 -0.31233,0.36939 -0.58228,0.74051 -0.26821,0.32873 -0.47197,0.63886 -0.18169,0.28981 -0.25134,0.43558 l 8.78211,9.53079 -2.05177,1.8906 z" />
        <path
           id="path4306"
           style="font-style:normal;font-variant:normal;font-weight:normal;font-stretch:normal;font-size:30px;font-family:Ubuntu;-inkscape-font-specification:Ubuntu"
           d="m 122.12061,324.17531 q 0.69057,-0.70874 1.90133,-1.77413 1.21076,-1.06539 2.97179,-2.15336 1.58238,-0.97759 2.9126,-1.16467 1.31446,-0.2126 2.43156,0.22568 1.12685,0.397 2.07585,1.3623 0.949,0.96529 1.78469,2.31797 l 4.60416,7.45246 -2.37356,1.4664 -4.28881,-6.94202 q -0.75685,-1.22507 -1.4716,-1.98245 -0.68924,-0.77314 -1.40319,-1.07259 -0.71396,-0.29945 -1.49392,-0.13496 -0.79573,0.13897 -1.74005,0.72238 -0.38283,0.23651 -0.77542,0.51432 -0.39258,0.2778 -0.74388,0.56536 -0.34154,0.24627 -0.61627,0.48653 -0.24921,0.22449 -0.36105,0.32885 l 6.92201,11.20422 -2.37356,1.46639 -7.96268,-12.88868 z" />
        <path
           id="path4308"
           style="font-style:normal;font-variant:normal;font-weight:normal;font-stretch:normal;font-size:30px;font-family:Ubuntu;-inkscape-font-specification:Ubuntu"
           d="m 147.62022,327.46712 -2.55396,1.12312 -6.27983,-14.28019 2.55396,-1.12312 6.27983,14.28019 z m -8.70574,-16.29401 q -0.68654,0.30191 -1.37408,0.0799 -0.67216,-0.26155 -1.0103,-1.03048 -0.33815,-0.76894 -0.0645,-1.41363 0.28901,-0.68423 0.97556,-0.98614 0.68655,-0.30192 1.3587,-0.0404 0.68754,0.22201 1.02568,0.99095 0.33815,0.76893 0.0491,1.45316 -0.27363,0.64469 -0.96018,0.94661 z" />
        <path
           id="path4310"
           style="font-style:normal;font-variant:normal;font-weight:normal;font-stretch:normal;font-size:30px;font-family:Ubuntu;-inkscape-font-specification:Ubuntu"
           d="m 158.68063,323.9985 q -1.80945,0.54588 -3.36137,0.38737 -1.52321,-0.16718 -2.78295,-0.91521 -1.23102,-0.75669 -2.11514,-2.0254 -0.89279,-1.29743 -1.41268,-3.02072 -0.5199,-1.72328 -0.46488,-3.30666 0.0837,-1.59204 0.69089,-2.90328 0.59848,-1.33997 1.74637,-2.31299 1.16795,-1.0104 2.80507,-1.50429 1.00525,-0.30328 2.06248,-0.43422 1.05724,-0.13094 2.08897,-0.0348 l 0.0814,2.45095 q -0.6898,-0.10525 -1.54599,-0.035 -0.82747,0.0616 -1.71783,0.33024 -2.24027,0.67586 -3.02199,2.44713 -0.753,1.76261 0.0615,4.46243 0.36393,1.2063 0.92569,2.13356 0.59049,0.9186 1.38154,1.46334 0.81977,0.53607 1.86017,0.6609 1.03172,0.0961 2.35291,-0.30249 1.06269,-0.3206 1.86368,-0.7816 0.80099,-0.46099 1.21993,-0.83807 l 1.04924,2.12763 q -0.18644,0.21292 -0.57394,0.48651 -0.39616,0.24485 -0.91587,0.49565 -0.51105,0.27952 -1.12559,0.52759 -0.57716,0.26813 -1.15159,0.44143 z" />
        <path
           id="path4312"
           style="font-style:normal;font-variant:normal;font-weight:normal;font-stretch:normal;font-size:30px;font-family:Ubuntu;-inkscape-font-specification:Ubuntu"
           d="m 170.52169,319.23755 q 0.98202,-0.1254 1.72218,-0.25016 0.76612,-0.15832 1.25681,-0.34196 l -0.58902,-4.61254 q -0.31659,-0.11079 -1.01243,-0.11266 -0.66988,-0.0354 -1.62215,0.0862 -0.62493,0.0798 -1.32772,0.26028 -0.67305,0.17668 -1.23021,0.55026 -0.53121,0.34003 -0.85347,0.89532 -0.32605,0.52554 -0.22345,1.32901 0.19001,1.48792 1.21828,1.96148 1.02447,0.44381 2.66118,0.2348 z m -2.00893,-13.83699 q 1.66647,-0.2128 2.85429,0.0892 1.21377,0.26841 2.00082,0.98448 0.813,0.68252 1.25119,1.74557 0.43439,1.0333 0.60159,2.34267 l 1.23504,9.67146 q -0.3495,0.10512 -0.98898,0.30776 -0.61352,0.16907 -1.4056,0.36095 -0.79207,0.19188 -1.73674,0.373 -0.91111,0.20708 -1.83362,0.32488 -1.30936,0.16721 -2.44462,0.04 -1.13526,-0.12722 -2.01094,-0.59003 -0.87948,-0.49256 -1.44746,-1.38782 -0.56798,-0.89527 -0.73898,-2.2344 -0.16341,-1.2796 0.22468,-2.26672 0.41785,-0.99091 1.23839,-1.67032 0.82055,-0.67941 1.97668,-1.09924 1.15614,-0.41983 2.4655,-0.58704 0.41662,-0.0532 0.8706,-0.0507 0.45017,-0.0272 0.84843,0.0126 0.42422,0.006 0.7294,0.0278 0.30518,0.0215 0.42802,0.0361 l -0.0988,-0.77372 q -0.0874,-0.68444 -0.3198,-1.32012 -0.2362,-0.66544 -0.68766,-1.12193 -0.45526,-0.48625 -1.1777,-0.69643 -0.69649,-0.24374 -1.76779,-0.10694 -1.36888,0.17481 -2.38382,0.51612 -0.98898,0.30776 -1.46828,0.58067 l -0.61995,-2.24959 q 0.50525,-0.30647 1.7285,-0.67439 1.21945,-0.39767 2.67761,-0.58388 z" />
        <path
           id="path4314"
           style="font-style:normal;font-variant:normal;font-weight:normal;font-stretch:normal;font-size:30px;font-family:Ubuntu;-inkscape-font-specification:Ubuntu"
           d="m 185.78807,320.80519 q -2.57967,-0.0729 -3.65442,-1.12823 -1.07475,-1.05537 -1.06369,-3.27534 l 0.0933,-18.71977 2.79236,-0.46609 -0.0934,18.74977 q -0.003,0.68999 0.11431,1.14059 0.11776,0.45059 0.38641,0.72193 0.26865,0.27134 0.7179,0.42358 0.4494,0.12224 1.10894,0.21553 l -0.40166,2.33803 z" />
      </g>
      <g
         id="text4207"
         style="font-style:normal;font-weight:normal;font-size:40px;line-height:125%;font-family:Sans;letter-spacing:0px;word-spacing:0px;fill:#000000;fill-opacity:1;stroke:none;stroke-width:1px;stroke-linecap:butt;stroke-linejoin:miter;stroke-opacity:1">
        <path
           id="path4317"
           style="font-size:30px"
           d="m 266.67746,306.48685 0.34777,2.49541 q -1.21858,-0.46614 -2.40719,-0.61108 -1.17613,-0.16147 -2.33679,2.8e-4 -2.59697,0.36193 -3.80278,2.21604 -1.20784,1.8396 -0.79334,4.81378 0.41449,2.97419 2.0813,4.42795 1.6648,1.43926 4.26177,1.07734 1.16066,-0.16176 2.24984,-0.62414 1.10166,-0.47891 2.14636,-1.26048 l 0.34373,2.4664 q -1.04434,0.67799 -2.21213,1.10695 -1.15328,0.42695 -2.50255,0.61499 -3.67058,0.51155 -6.15379,-1.49399 -2.48321,-2.00554 -3.02913,-5.92276 -0.55401,-3.97526 1.30478,-6.55634 1.8733,-2.5831 5.67446,-3.11284 1.2332,-0.17187 2.44476,-0.0745 1.20954,0.0829 2.38293,0.43699 z" />
        <path
           id="path4319"
           style="font-size:30px"
           d="m 280.73991,307.77153 q -2.16475,-0.11816 -3.51525,1.50988 -1.3497,1.61341 -1.51017,4.55337 -0.16046,2.93996 0.99019,4.70451 1.16609,1.75072 3.34546,1.86968 2.15012,0.11735 3.50062,-1.51068 1.3505,-1.62804 1.51017,-4.55337 0.15887,-2.91071 -1.00641,-4.67606 -1.16449,-1.77998 -3.31461,-1.89733 z m 0.12454,-2.28176 q 3.5104,0.1916 5.38971,2.58273 1.87931,2.39113 1.65897,6.42809 -0.21954,4.02234 -2.34874,6.20935 -2.12839,2.17239 -5.63879,1.98078 -3.52503,-0.1924 -5.40434,-2.58353 -1.86389,-2.40496 -1.64434,-6.42729 0.22034,-4.03696 2.33411,-6.21015 2.12839,-2.17239 5.65342,-1.97998 z" />
        <path
           id="path4321"
           style="font-size:30px"
           d="m 307.63924,317.45652 -2.57769,9.56096 -2.60239,-0.70162 2.55481,-9.47609 q 0.60629,-2.24881 0.0306,-3.60256 -0.57566,-1.35374 -2.32944,-1.82657 -2.10737,-0.56816 -3.68596,0.44753 -1.57858,1.0157 -2.20394,3.33522 l -2.41372,8.95279 -2.61653,-0.70543 4.27072,-15.84064 2.61653,0.70543 -0.66348,2.46096 q 1.31859,-1.17682 2.76801,-1.54462 1.46357,-0.36399 3.11835,0.0822 2.72968,0.73594 3.67231,2.81065 0.94643,2.06057 0.0618,5.34184 z" />
        <path
           id="path4323"
           style="font-size:30px"
           d="m 327.70223,320.25398 -1.12587,2.25399 q -0.74069,-1.07406 -1.63849,-1.86637 -0.87815,-0.79887 -1.92652,-1.32252 -2.34572,-1.17169 -4.38929,-0.32579 -2.03702,0.8328 -3.37889,3.51924 -1.34187,2.68644 -0.79073,4.82839 0.55769,2.12884 2.90341,3.30053 1.04837,0.52365 2.20799,0.75902 1.17927,0.22881 2.48289,0.17588 l -1.11277,2.22778 q -1.2447,-0.0322 -2.4502,-0.33967 -1.1924,-0.30086 -2.41113,-0.90961 -3.31546,-1.65607 -4.22728,-4.71501 -0.91182,-3.05894 0.85553,-6.59718 1.79352,-3.59066 4.78689,-4.66622 3.00647,-1.06902 6.43987,0.64595 1.11389,0.55639 2.05754,1.32248 0.9502,0.75298 1.71705,1.70911 z" />
        <path
           id="path4325"
           style="font-size:30px"
           d="m 341.20541,338.46202 -0.8068,1.04267 -9.80106,-7.58389 q -1.56421,2.30876 -1.27896,4.38165 0.3058,2.07026 2.42588,3.71075 1.22803,0.95022 2.60804,1.53648 1.39159,0.59523 2.99308,0.87131 l -1.5598,2.01582 q -1.52344,-0.4009 -2.92551,-1.07832 -1.40208,-0.67742 -2.64169,-1.63661 -3.10483,-2.40246 -3.52525,-5.61716 -0.40884,-3.20573 1.97569,-6.28739 2.46521,-3.18592 5.62308,-3.72441 3.17842,-0.5411 6.09789,1.71793 2.61825,2.02596 2.8271,4.89173 0.22941,2.86315 -2.01169,5.75944 z m -1.6476,-2.27505 q 1.33046,-1.76729 1.17568,-3.554 -0.14318,-1.77774 -1.71877,-2.9969 -1.78411,-1.38052 -3.64144,-1.2063 -1.84574,0.18319 -3.42431,1.88814 l 7.60884,5.86906 z" />
        <path
           id="path4327"
           style="font-size:30px"
           d="m 342.49878,349.0352 -6.63312,5.63134 -1.75387,-2.06588 17.264,-14.65665 1.75387,2.06587 -1.89837,1.61167 q 1.66655,-0.30036 3.03683,0.22727 1.39093,0.52931 2.55702,1.90284 1.93399,2.27804 1.32896,5.23205 -0.59554,2.96519 -3.5436,5.468 -2.94806,2.50282 -5.97058,2.60928 -3.01304,0.11763 -4.94704,-2.16042 -1.16608,-1.37352 -1.47383,-2.82243 -0.28709,-1.44723 0.27973,-3.04294 z m 10.30097,3.28364 q 2.26688,-1.92452 2.75472,-3.95278 0.50848,-2.02657 -0.87565,-3.65694 -1.38414,-1.63036 -3.47585,-1.46866 -2.07106,0.1634 -4.33793,2.08791 -2.26688,1.92452 -2.77537,3.95109 -0.48784,2.02826 0.89629,3.65863 1.38414,1.63036 3.4552,1.46697 2.09171,-0.1617 4.35859,-2.08622 z" />
        <path
           id="path4329"
           style="font-size:30px"
           d="m 370.13804,355.25644 -4.01389,2.36379 2.81723,4.78386 -1.80499,1.06296 -2.81723,-4.78385 -7.67436,4.51946 q -1.72925,1.01836 -1.94649,1.77529 -0.20981,0.76954 0.64503,2.22111 l 1.40489,2.38561 -1.94383,1.14473 -1.4049,-2.38561 q -1.5833,-2.68855 -1.18823,-4.29819 0.40768,-1.61707 3.05837,-3.17807 l 7.67436,-4.51946 -1.0035,-1.70401 1.80499,-1.06296 1.00349,1.70401 4.0139,-2.3638 1.37516,2.33513 z" />
        <path
           id="path4331"
           style="font-size:30px"
           d="m 362.43486,371.36837 9.29738,-3.49228 0.94776,2.52318 -9.20139,3.45623 q -2.18036,0.81899 -2.95805,2.08126 -0.76397,1.25713 -0.12526,2.95753 0.76748,2.04323 2.51319,2.73322 1.75085,0.70369 3.99978,-0.14105 l 8.70773,-3.2708 0.94776,2.52318 -15.35852,5.76897 -0.94776,-2.52318 2.35863,-0.88595 q -1.74383,-0.39338 -2.8879,-1.35629 -1.12521,-0.95435 -1.72787,-2.55876 -0.99411,-2.64661 0.13636,-4.63601 1.13046,-1.9894 4.29816,-3.17925 z m 12.05249,2.71774 0,0 z" />
        <path
           id="path4333"
           style="font-size:30px"
           d="m 371.83788,398.10643 q -0.48503,-3.2304 -1.41087,-4.36527 -0.92584,-1.13488 -2.70763,-0.86735 -1.41963,0.21315 -2.12062,1.26641 -0.68433,1.06557 -0.4429,2.67352 0.33277,2.21637 2.09737,3.31419 1.78126,1.11012 4.38875,0.71862 l 0.59393,-0.0892 -0.39803,-2.65095 z m 1.89917,5.15108 -9.25659,1.38983 -0.40021,-2.66543 2.46263,-0.36975 q -1.6146,-0.69077 -2.52887,-1.94589 -0.89978,-1.25729 -1.19558,-3.22739 -0.37411,-2.4916 0.7947,-4.17798 1.18548,-1.67407 3.53222,-2.02643 2.73786,-0.41107 4.40258,1.20537 1.66689,1.63093 2.21282,5.26693 l 0.56115,3.7374 0.26075,-0.0392 q 1.83973,-0.27622 2.65657,-1.64313 0.83349,-1.35459 0.50507,-3.54199 -0.2088,-1.39066 -0.73991,-2.65887 -0.53111,-1.2682 -1.38017,-2.38498 l 2.46263,-0.36975 q 0.78464,1.37826 1.2665,2.71311 0.49635,1.33268 0.6921,2.63642 0.52853,3.52012 -1.03572,5.5325 -1.56424,2.01238 -5.27267,2.56918 z" />
        <path
           id="path4335"
           style="font-size:30px"
           d="m 387.30763,410.21663 0.002,2.69531 -22.79296,0.0196 -0.002,-2.69531 22.79296,-0.0196 z" />
      </g>
      <g
         id="text4214"
         style="font-style:normal;font-weight:normal;font-size:40px;line-height:125%;font-family:Sans;letter-spacing:0px;word-spacing:0px;fill:#000000;fill-opacity:1;stroke:none;stroke-width:1px;stroke-linecap:butt;stroke-linejoin:miter;stroke-opacity:1">
        <path
           id="path4338"
           style="font-style:normal;font-variant:normal;font-weight:normal;font-stretch:normal;font-size:30px;font-family:Ubuntu;-inkscape-font-specification:Ubuntu;writing-mode:lr-tb"
           d="m 302.64841,532.09579 1.53838,-2.32755 13.01425,8.60171 -1.53839,2.32755 -13.01424,-8.60171 z m 16.14428,8.98035 q 0.41355,-0.62569 1.11174,-0.81151 0.70667,-0.14426 1.40744,0.31891 0.70076,0.46317 0.81999,1.1533 0.12772,0.73171 -0.28583,1.35739 -0.41354,0.62569 -1.12022,0.76994 -0.69819,0.18583 -1.39895,-0.27734 -0.70077,-0.46317 -0.82848,-1.19487 -0.11923,-0.69014 0.29431,-1.31582 z" />
        <path
           id="path4340"
           style="font-style:normal;font-variant:normal;font-weight:normal;font-stretch:normal;font-size:30px;font-family:Ubuntu;-inkscape-font-specification:Ubuntu;writing-mode:lr-tb"
           d="m 311.34175,546.15347 q -0.45455,0.87897 -1.30305,2.25048 -0.84851,1.37151 -2.21692,2.92468 -1.22958,1.39561 -2.44787,1.96154 -1.19578,0.58576 -2.39206,0.49137 -1.19361,-0.052 -2.38236,-0.69956 -1.18875,-0.64751 -2.38177,-1.6986 l -6.57287,-5.79095 1.84438,-2.09341 6.12267,5.3943 q 1.08047,0.95194 1.98463,1.46866 0.88432,0.53923 1.65451,0.61805 0.77019,0.0788 1.46857,-0.30543 0.7209,-0.36443 1.45469,-1.19729 0.29748,-0.33765 0.59228,-0.71764 0.2948,-0.37998 0.54726,-0.7573 0.25514,-0.33497 0.4481,-0.64475 0.17314,-0.28727 0.24979,-0.41965 l -9.88181,-8.70625 1.84437,-2.09341 11.36746,10.01516 z" />
        <path
           id="path4342"
           style="font-style:normal;font-variant:normal;font-weight:normal;font-stretch:normal;font-size:30px;font-family:Ubuntu;-inkscape-font-specification:Ubuntu;writing-mode:lr-tb"
           d="m 296.02568,562.36303 -4.56756,3.7504 -1.48493,-1.80847 4.56756,-3.7504 -4.56902,-5.56454 q -0.74246,-0.90424 -1.37655,-1.39284 -0.61505,-0.46541 -1.17884,-0.58475 -0.54476,-0.0961 -1.07632,0.10742 -0.53157,0.20356 -1.08802,0.66046 -0.9738,0.79958 -1.3821,1.48419 -0.41245,0.72683 -0.56815,1.00995 l -1.88324,-1.44261 q 0.19134,-0.42883 0.81246,-1.327 0.60208,-0.92135 1.64543,-1.77804 1.22884,-1.009 2.28782,-1.3739 1.05484,-0.32268 2.05575,-0.0965 1.00091,0.22622 1.95205,0.95912 0.94698,0.77512 1.93694,1.98077 l 8.83343,10.75811 -1.85166,2.14146 -3.06505,-3.73288 z" />
        <path
           id="path4344"
           style="font-style:normal;font-variant:normal;font-weight:normal;font-stretch:normal;font-size:30px;font-family:Ubuntu;-inkscape-font-specification:Ubuntu;writing-mode:lr-tb"
           d="m 283.58132,562.26358 q 1.04363,1.78766 1.29684,3.41148 0.26834,1.64973 -0.0724,3.02973 -0.34072,1.38 -1.19765,2.47082 -0.85693,1.09081 -2.02279,1.77144 -2.72036,1.58812 -5.16947,0.72519 -2.43399,-0.83704 -4.46074,-4.30873 -0.0908,-0.15545 -0.242,-0.41453 -0.13612,-0.23318 -0.23122,-0.45557 l 9.22332,-5.3845 q -1.38058,-2.00782 -3.07806,-2.47583 -1.69749,-0.46802 -3.9515,0.84785 -1.2695,0.74113 -2.00347,1.44752 -0.74476,0.74743 -1.0642,1.21182 l -1.51655,-1.82422 q 0.30431,-0.4903 1.26711,-1.39975 0.9369,-0.89434 2.33594,-1.71109 1.76175,-1.0285 3.35966,-1.26658 1.58713,-0.19706 2.96069,0.25164 1.37357,0.44869 2.52922,1.47619 1.14488,1.06853 2.03725,2.59712 z m -8.47784,6.72094 q 0.92696,1.64735 2.38693,2.18455 1.44919,0.57823 2.92596,-0.28389 0.82906,-0.484 1.28014,-1.19894 0.44029,-0.67389 0.57823,-1.44918 0.13794,-0.77529 0.004,-1.60015 -0.16007,-0.80974 -0.49072,-1.55464 l -6.68431,3.90225 z" />
        <path
           id="path4346"
           style="font-style:normal;font-variant:normal;font-weight:normal;font-stretch:normal;font-size:30px;font-family:Ubuntu;-inkscape-font-specification:Ubuntu;writing-mode:lr-tb"
           d="m 264.53994,580.86241 q -0.33572,0.12998 -0.77703,0.2365 -0.45845,0.14532 -0.9106,0.22386 -0.44131,0.10652 -0.80952,0.15256 -0.38535,0.0849 -0.57487,0.0939 l -0.42972,-2.43939 q 0.35107,-0.007 1.13261,-0.14897 0.7644,-0.10293 1.88346,-0.53618 0.72739,-0.28161 1.38979,-0.73109 0.64525,-0.41066 0.8474,-0.55327 l -4.73329,-12.22571 2.60181,-1.00731 5.394,13.93227 q -0.79324,0.69316 -2.05578,1.50366 -1.2517,0.83847 -2.95826,1.49918 z" />
        <path
           id="path4348"
           style="font-style:normal;font-variant:normal;font-weight:normal;font-stretch:normal;font-size:30px;font-family:Ubuntu;-inkscape-font-specification:Ubuntu;writing-mode:lr-tb"
           d="m 244.24303,577.79491 q 0.55477,2.67304 2.17533,3.83803 1.62055,1.16499 3.8236,0.70776 1.23371,-0.25604 1.9204,-0.49048 0.65731,-0.22834 1.04417,-0.43118 l -1.99961,-9.63469 q -0.58471,-0.3076 -1.60393,-0.49438 -1.01922,-0.18678 -2.13544,0.0449 -1.17496,0.24385 -1.91208,0.82579 -0.76041,0.6174 -1.13673,1.46149 -0.37023,0.87346 -0.39794,1.92095 -0.0216,1.07686 0.22223,2.25182 z m -2.84928,0.59135 q -0.35968,-1.73307 -0.19452,-3.29932 0.13579,-1.56014 0.79755,-2.8005 0.66175,-1.24036 1.83228,-2.09608 1.14116,-0.84962 2.7861,-1.19102 1.32183,-0.27433 2.42308,-0.13522 1.07188,0.14521 1.63829,0.36469 l -1.26804,-6.1098 2.73179,-0.56696 4.20039,20.23871 q -0.92057,0.43617 -2.30503,0.99926 -1.40774,0.59856 -3.31705,0.99482 -1.76245,0.36579 -3.28823,0.10031 -1.52579,-0.26549 -2.73788,-1.0863 -1.21209,-0.82082 -2.05173,-2.20916 -0.86293,-1.35287 -1.247,-3.20343 z" />
        <path
           id="path4350"
           style="font-style:normal;font-variant:normal;font-weight:normal;font-stretch:normal;font-size:30px;font-family:Ubuntu;-inkscape-font-specification:Ubuntu;writing-mode:lr-tb"
           d="m 236.80457,578.83663 q 0.0269,2.06983 -0.55321,3.60749 -0.5797,1.56766 -1.55637,2.60042 -0.97668,1.03277 -2.25995,1.55948 -1.28327,0.5267 -2.63315,0.54423 -3.14974,0.0409 -4.8553,-1.91713 -1.70518,-1.92803 -1.75737,-5.94769 -0.002,-0.17998 -0.006,-0.47996 -0.004,-0.26997 0.0234,-0.51034 l 10.6791,-0.13866 q -0.21153,-2.42746 -1.45779,-3.67138 -1.24625,-1.24393 -3.85603,-1.21004 -1.46988,0.0191 -2.45668,0.27192 -1.01641,0.28322 -1.52325,0.52982 l -0.42035,-2.33474 q 0.50645,-0.2766 1.79245,-0.59332 1.256,-0.31634 2.87586,-0.33737 2.03983,-0.0265 3.5475,0.55399 1.47805,0.61086 2.45199,1.67831 0.97394,1.06745 1.47298,2.53109 0.46944,1.49403 0.49242,3.26388 z m -10.68923,1.66892 q -0.005,1.89023 1.00003,3.07727 0.97589,1.21744 2.68575,1.19524 0.95991,-0.0125 1.70479,-0.41217 0.71526,-0.36932 1.21743,-0.97589 0.50217,-0.60657 0.79202,-1.3904 0.25985,-0.78344 0.33932,-1.59454 l -7.73934,0.10049 z" />
        <path
           id="path4352"
           style="font-style:normal;font-variant:normal;font-weight:normal;font-stretch:normal;font-size:30px;font-family:Ubuntu;-inkscape-font-specification:Ubuntu;writing-mode:lr-tb"
           d="m 211.09808,585.65891 q -0.35627,-0.0517 -0.793,-0.17567 -0.47072,-0.0986 -0.90313,-0.25228 -0.43673,-0.12398 -0.78008,-0.26474 -0.37734,-0.11537 -0.54686,-0.20059 l 0.8239,-2.33591 q 0.30936,0.16614 1.05974,0.42657 0.71639,0.28581 1.90395,0.4581 0.77192,0.11198 1.56969,0.0458 0.76376,-0.0408 1.00989,-0.0657 l 1.88222,-12.97418 2.7611,0.40057 -2.14496,14.78522 q -1.03143,0.21413 -2.52927,0.29998 -1.50215,0.11553 -3.31319,-0.14721 z" />
        <path
           id="path4354"
           style="font-style:normal;font-variant:normal;font-weight:normal;font-stretch:normal;font-size:30px;font-family:Ubuntu;-inkscape-font-specification:Ubuntu;writing-mode:lr-tb"
           d="m 203.59425,569.69561 q -1.6414,-0.47948 -2.54508,-0.27465 -0.93248,0.19641 -1.21008,1.1467 -0.286,0.97908 0.32327,1.78213 0.60927,0.80305 2.18435,2.0445 0.76296,0.59792 1.46832,1.17901 0.66815,0.60147 1.10108,1.25925 0.43292,0.65778 0.5766,1.44984 0.14367,0.79206 -0.15075,1.79994 -0.58042,1.98696 -2.38552,2.70981 -1.81351,0.75166 -4.3476,0.0114 -0.63353,-0.18506 -1.24181,-0.45651 -0.6167,-0.24266 -1.13019,-0.51767 -0.5219,-0.24622 -0.8914,-0.47917 -0.3983,-0.24136 -0.60344,-0.39505 l 1.16249,-2.16072 q 0.36466,0.35655 1.21885,0.8561 0.84578,0.52835 2.14163,0.90689 1.12306,0.32806 2.09275,0.11126 0.96128,-0.188 1.23887,-1.13828 0.143,-0.48955 0.0796,-0.91437 -0.0922,-0.43324 -0.37405,-0.85936 -0.31903,-0.40573 -0.81925,-0.83313 -0.50023,-0.42741 -1.22241,-0.95091 -0.9477,-0.71439 -1.66504,-1.36149 -0.72574,-0.6183 -1.15026,-1.30487 -0.45331,-0.69499 -0.55136,-1.53623 -0.10647,-0.81245 0.20477,-1.87792 0.60566,-2.07335 2.47191,-2.68458 1.83746,-0.61964 4.68831,0.21314 1.98696,0.58042 3.00909,1.25404 1.03053,0.64483 1.38321,0.93538 l -1.16249,2.16072 q -0.41028,-0.30737 -1.31721,-0.94735 -0.90694,-0.63997 -2.57714,-1.12786 z" />
        <path
           id="path4356"
           style="font-style:normal;font-variant:normal;font-weight:normal;font-stretch:normal;font-size:30px;font-family:Ubuntu;-inkscape-font-specification:Ubuntu;writing-mode:lr-tb"
           d="m 179.06557,565.7046 q 0.82366,-1.66769 1.97207,-2.77348 1.14841,-1.10578 2.51431,-1.63572 1.33899,-0.54322 2.81511,-0.48336 1.46283,0.0867 2.88843,0.79084 1.42561,0.7041 2.38362,1.81298 0.94472,1.13578 1.35411,2.54252 0.38248,1.39345 0.20241,2.97748 -0.18007,1.58404 -1.00373,3.25173 -0.81038,1.64079 -1.95878,2.74657 -1.1617,1.13269 -2.50069,1.67591 -1.3659,0.52993 -2.82873,0.44318 -1.47611,-0.0599 -2.90172,-0.76395 -1.4256,-0.70409 -2.37033,-1.83987 -0.95801,-1.10889 -1.34049,-2.50234 -0.40939,-1.40673 -0.21603,-3.01767 0.18007,-1.58403 0.99044,-3.22482 z m 2.60913,1.28862 q -1.16906,2.36705 -0.77066,4.27025 0.35822,1.91681 2.1873,2.82018 1.82907,0.90337 3.59581,0.036 1.72656,-0.8537 2.89562,-3.22074 1.16907,-2.36704 0.81085,-4.28386 -0.3984,-1.9032 -2.22748,-2.80656 -1.82908,-0.90337 -3.55564,-0.0497 -1.76674,0.86731 -2.9358,3.23435 z" />
        <path
           id="path4358"
           style="font-style:normal;font-variant:normal;font-weight:normal;font-stretch:normal;font-size:30px;font-family:Ubuntu;-inkscape-font-specification:Ubuntu;writing-mode:lr-tb"
           d="m 169.9997,568.5505 q -0.90801,-0.39335 -2.33435,-1.14604 -1.42634,-0.7527 -3.06949,-2.01165 -1.47646,-1.13123 -2.1244,-2.30795 -0.66619,-1.1529 -0.65386,-2.35284 -0.0297,-1.19437 0.53494,-2.42463 0.56467,-1.23026 1.53169,-2.49239 l 5.32773,-6.95363 2.21468,1.69684 -4.96282,6.47735 q -0.87579,1.14307 -1.32944,2.08045 -0.47747,0.91915 -0.50342,1.69292 -0.0259,0.77378 0.40518,1.44424 0.41289,0.69428 1.294,1.36937 0.3572,0.27368 0.75647,0.5418 0.39927,0.26812 0.79296,0.49417 0.35164,0.23163 0.6739,0.40295 0.29844,0.15307 0.43576,0.22049 l 8.00984,-10.45425 2.21468,1.69684 -9.21405,12.02596 z" />
        <path
           id="path4360"
           style="font-style:normal;font-variant:normal;font-weight:normal;font-stretch:normal;font-size:30px;font-family:Ubuntu;-inkscape-font-specification:Ubuntu;writing-mode:lr-tb"
           d="m 160.82172,543.06929 q -0.66344,-0.73482 -1.18831,-1.27139 -0.56725,-0.53873 -0.99809,-0.83686 l -3.45139,3.11615 q 0.0897,0.32319 0.4853,0.89565 0.35323,0.57029 0.99656,1.28284 0.42219,0.4676 0.97149,0.9417 0.5292,0.45183 1.15395,0.69613 0.58239,0.24214 1.22228,0.18984 0.61763,-0.0322 1.21884,-0.57501 1.11335,-1.00521 0.91536,-2.11984 -0.22026,-1.09453 -1.32599,-2.31921 z m -10.21561,9.54669 q -1.12584,-1.24696 -1.55579,-2.39467 -0.47233,-1.14987 -0.33351,-2.20483 0.0964,-1.05712 0.71928,-2.02364 0.60057,-0.94642 1.58032,-1.83101 l 7.23679,-6.53386 q 0.28578,0.227 0.81714,0.63645 0.48899,0.4073 1.09861,0.9482 0.60961,0.54089 1.29748,1.21323 0.69003,0.62997 1.31326,1.32025 0.88459,0.97975 1.42804,1.98456 0.54345,1.00482 0.66319,1.98801 0.0975,1.0033 -0.31351,1.98064 -0.41098,0.97734 -1.413,1.88203 -0.95748,0.86448 -1.98953,1.10917 -1.05216,0.22242 -2.07836,-0.0636 -1.0262,-0.28603 -2.03077,-0.99578 -1.00457,-0.70974 -1.88915,-1.68949 -0.28146,-0.31174 -0.53849,-0.68596 -0.2793,-0.35411 -0.47385,-0.70389 -0.23693,-0.35195 -0.39343,-0.61483 -0.15651,-0.26287 -0.21466,-0.37205 l -0.57894,0.52271 q -0.51215,0.4624 -0.9015,1.01603 -0.41162,0.57373 -0.52881,1.20497 -0.13945,0.65135 0.10028,1.36453 0.19735,0.71102 0.9211,1.51264 0.9248,1.02428 1.78431,1.6629 0.81715,0.63645 1.31479,0.87426 l -1.49342,1.79296 q -0.54001,-0.23997 -1.54026,-1.03446 -1.02251,-0.77438 -2.00761,-1.86546 z" />
        <path
           id="path4362"
           style="font-style:normal;font-variant:normal;font-weight:normal;font-stretch:normal;font-size:30px;font-family:Ubuntu;-inkscape-font-specification:Ubuntu;writing-mode:lr-tb"
           d="m 153.39766,529.63863 q 1.41111,2.16074 1.15696,3.64543 -0.25414,1.48469 -2.08415,2.74146 l -15.43143,10.5976 -1.97513,-2.02814 15.45616,-10.61459 q 0.56879,-0.39061 0.8718,-0.74428 0.30302,-0.35367 0.37274,-0.72909 0.0697,-0.37542 -0.0614,-0.83129 -0.15583,-0.43888 -0.45527,-1.03388 l 2.14971,-1.00322 z" />
      </g>
    </g>
  </g>
</svg>
